<?xml version="1.0" encoding="UTF-8"?>
<svg version="1.1" xmlns="http://www.w3.org/2000/svg" width="1024" height="1024">
<path d="M0 0 C6.34343446 6.20246925 7.0907927 12.41622663 7.24291992 20.92138672 C7.24935228 23.67470758 7.24516603 26.42654021 7.23046875 29.1796875 C7.22927219 30.67538411 7.22882479 32.17108149 7.2290802 33.66677856 C7.22751962 36.80540676 7.21927879 39.94392025 7.20581055 43.08251953 C7.18908321 47.02215766 7.18508544 50.96166838 7.18561745 54.90133762 C7.18490346 78.38633348 7.10773156 101.92386857 4.75 125.3125 C4.62069092 126.59825928 4.49138184 127.88401855 4.3581543 129.20874023 C-2.21932097 192.16787701 -24.62384525 252.54411386 -66 301 C-66.8245166 301.99088623 -67.6490332 302.98177246 -68.49853516 304.00268555 C-75.8143931 312.74659829 -83.61384818 320.89475367 -91.71044922 328.91625977 C-93.76728007 330.95462493 -95.81578617 333.00108947 -97.86328125 335.04882812 C-99.19483906 336.37547536 -100.52685399 337.70166398 -101.859375 339.02734375 C-102.45852722 339.62538315 -103.05767944 340.22342255 -103.67498779 340.83958435 C-107.40539205 344.52904736 -111.25537917 348.0364293 -115.2275238 351.46440125 C-117.63598658 353.550992 -119.97193203 355.71279569 -122.3125 357.875 C-127.71500055 362.79513443 -133.28986254 367.44257746 -139 372 C-139.51369141 372.41330566 -140.02738281 372.82661133 -140.55664062 373.25244141 C-176.26334966 401.95381363 -215.29099646 425.70509862 -259 440 C-259.94037109 440.31275879 -260.88074219 440.62551758 -261.84960938 440.94775391 C-292.95743968 451.15194947 -325.60321867 455.25402358 -358 459 C-357.83730118 459.68092209 -357.67460236 460.36184418 -357.50697327 461.06340027 C-349.24883947 495.65260214 -341.16732188 530.27778958 -333.47837448 564.99835587 C-332.94786747 567.39074653 -332.41518546 569.78264274 -331.88186646 572.17440796 C-328.05315879 589.36053256 -324.42018864 606.57029774 -321.14453125 623.87109375 C-320.99995924 624.63247587 -320.85538723 625.39385799 -320.70643425 626.1783123 C-305.74908193 705.25417562 -299.44334552 801.31921836 -338.8125 902.76171875 C-349.40596476 917.06762541 -363.991861 920.75653652 -380.91162109 923.46630859 C-408.39909268 927.47101976 -450.928448 932.88876538 -475.625 916.1875 C-479.15119855 913.19060398 -480.87482703 910.57570342 -482 906 C-482.11782001 897.95898744 -480.0194545 891.74962817 -476.375 884.6875 C-475.92060547 883.7694458 -475.46621094 882.8513916 -474.99804688 881.90551758 C-473.07982389 878.04295718 -471.10910271 874.20807352 -469.1328125 870.375 C-426.89274534 787.91592152 -413.44998043 687.76032353 -437 483 C-443.12303291 484.05611074 -449.20771141 485.23880202 -455.28125 486.55078125 C-470.14694487 489.757085 -485.00646781 492.64870425 -500.0625 494.8125 C-500.73361816 494.91132477 -501.40473633 495.01014954 -502.09619141 495.11196899 C-524.84345386 498.4297442 -547.5955087 499.38132724 -570.5625 499.3125 C-571.83203522 499.31067719 -573.10157043 499.30885437 -574.40957642 499.30697632 C-593.78985459 499.26023503 -612.7917728 498.71041202 -632 496 C-633.26585937 495.82839355 -634.53171875 495.65678711 -635.8359375 495.47998047 C-702.73648109 486.21491756 -765.09022731 462.83507403 -817.21337891 419.47802734 C-818.86404442 418.11247269 -820.52706212 416.76487674 -822.19921875 415.42578125 C-826.82845757 411.70596998 -831.21068375 407.93985474 -835.3359375 403.66796875 C-837.09033743 401.90945051 -838.92433565 400.30109065 -840.8125 398.6875 C-847.77411561 392.67028961 -854.19724138 386.09914034 -860.171875 379.10546875 C-862.3102087 376.64272972 -864.53084599 374.26512657 -866.75 371.875 C-871.99523219 366.11552936 -876.79497195 360.07387164 -881.53613281 353.89648438 C-883.01786728 351.9768524 -884.51879597 350.07358806 -886.0234375 348.171875 C-909.49116747 318.29121742 -931.46615925 283.8390524 -944.4375 247.9375 C-944.68483887 247.25905029 -944.93217773 246.58060059 -945.18701172 245.8815918 C-947.17982705 240.11579811 -948.96689126 234.41722815 -946.625 228.5625 C-921.12886275 190.36150791 -858.01109186 165.55484233 -815.40649414 156.58911133 C-805.67161523 154.64753584 -795.8641278 153.11313273 -786 152 C-785.17725586 151.90428711 -784.35451172 151.80857422 -783.50683594 151.70996094 C-772.91429914 150.64956705 -762.25942816 150.75618049 -751.625 150.75 C-750.58087952 150.74932526 -749.53675903 150.74865051 -748.46099854 150.74795532 C-654.54110616 150.84406508 -566.76182379 183.81998954 -495 244 C-493.16725175 245.47989155 -491.33390535 246.9590426 -489.5 248.4375 C-484.78822071 252.28892587 -480.27035422 256.31634463 -475.80078125 260.4453125 C-473.6070503 262.44628885 -471.3927762 264.40782318 -469.15234375 266.35546875 C-465.10658636 269.88485786 -461.16267004 273.51159317 -457.25 277.1875 C-456.56550781 277.82953369 -455.88101562 278.47156738 -455.17578125 279.13305664 C-448.98853978 284.96240018 -442.95952005 290.93889722 -437 297 C-436.75991211 296.31824707 -436.51982422 295.63649414 -436.27246094 294.93408203 C-430.42790369 278.45880849 -423.88777088 262.60568095 -416.34277344 246.82519531 C-415.16587437 244.34899967 -414.01561416 241.86377184 -412.8828125 239.3671875 C-393.52210409 196.85178412 -366.81718608 155.75829864 -335.16015625 121.37109375 C-333.93714884 120.02866066 -332.72314961 118.67749407 -331.5402832 117.29956055 C-326.63269242 111.58561529 -321.39906039 106.25003987 -316.0625 100.9375 C-315.20720703 100.07833984 -314.35191406 99.21917969 -313.47070312 98.33398438 C-308.47600438 93.34690531 -303.37115509 88.57744636 -298 84 C-297.03578125 83.154375 -296.0715625 82.30875 -295.078125 81.4375 C-264.75174464 55.29984621 -230.26890919 33.71552028 -193 19 C-192.26942383 18.70528809 -191.53884766 18.41057617 -190.78613281 18.10693359 C-149.68734994 1.6178153 -40.68308943 -29.05934959 0 0 Z " fill="#99C23B" transform="translate(971,64)"/>
<path d="M0 0 C3.125 2 3.125 2 5 5 C5.90723374 11.35063619 4.87275816 13.78794047 1 19 C-0.70185974 20.85777546 -2.45442366 22.67013986 -4.25 24.4375 C-4.98005249 25.15679687 -4.98005249 25.15679687 -5.72485352 25.890625 C-8.99778424 29.09077601 -12.3604397 32.1528602 -15.83984375 35.125 C-18.609852 37.52934712 -21.30369197 40.01386444 -24 42.5 C-27.95831273 46.14447289 -31.95177622 49.73914466 -36.015625 53.265625 C-40.05373262 56.79499465 -44.01974189 60.40570631 -48 64 C-57.49538934 72.57462432 -57.49538934 72.57462432 -61.8125 76.3125 C-67.08169841 80.90453235 -72.18341539 85.68045046 -77.30761719 90.43261719 C-79.41529035 92.38461685 -81.52911102 94.32987518 -83.64318848 96.27493286 C-86.43342071 98.84495609 -89.21637527 101.42282468 -92 104 C-92.57434784 104.53078156 -93.14869568 105.06156311 -93.740448 105.60842896 C-104.11668932 115.21139535 -114.22018178 125.06275316 -124.20336914 135.07299805 C-126.58820255 137.46326107 -128.97843105 139.84803758 -131.36914062 142.23242188 C-132.91438372 143.77832482 -134.45931709 145.32453743 -136.00390625 146.87109375 C-137.05560753 147.91975868 -137.05560753 147.91975868 -138.1285553 148.98960876 C-142.06889812 152.94852929 -145.83663856 157.00571556 -149.47901917 161.24090576 C-151.71410243 163.82589698 -154.04581495 166.31194848 -156.375 168.8125 C-160.64395194 173.43299549 -164.68031294 178.19106752 -168.625 183.09375 C-171.33468777 186.40955214 -174.13213931 189.64029716 -176.9375 192.875 C-182.128936 198.88617956 -187.01720895 205.07852111 -191.79980469 211.41748047 C-193.76117632 214.00365031 -195.75975528 216.56102023 -197.75 219.125 C-201.8567488 224.45181044 -205.87809055 229.84040878 -209.875 235.25 C-210.40319336 235.9630127 -210.93138672 236.67602539 -211.47558594 237.41064453 C-222.47755491 252.35591291 -232.93956149 267.67708937 -243.3125 283.0625 C-243.94896454 284.00543915 -244.58542908 284.9483783 -245.24118042 285.91989136 C-253.7054662 298.47010001 -261.97749144 311.09181752 -269.8984375 323.9921875 C-273.05593979 329.12836463 -276.3441517 334.17069184 -279.6875 339.1875 C-280.41078491 340.27623413 -280.41078491 340.27623413 -281.14868164 341.38696289 C-288.78450201 352.76478657 -288.78450201 352.76478657 -294 355 C-297.125 355 -297.125 355 -300 354 C-304.35039492 348.22358489 -303.91230354 341.90516656 -303 335 C-296.36288051 300.03816031 -274.98734943 264.00775856 -256.71337891 233.83251953 C-254.97479188 230.9583265 -253.25768888 228.07207775 -251.54296875 225.18359375 C-233.64917582 195.21230748 -213.26422622 166.41010656 -190.49609375 139.9296875 C-188.19004939 137.22306267 -185.96551747 134.4682426 -183.75 131.6875 C-174.27905311 120.09892942 -163.61524282 109.52913499 -153.0625 98.9375 C-152.1869043 98.05723145 -151.31130859 97.17696289 -150.40917969 96.27001953 C-145.43231651 91.30548941 -140.33931121 86.56983256 -135 82 C-133.84326911 80.97857812 -132.68828004 79.95517984 -131.53515625 78.9296875 C-123.00283275 71.40059243 -114.17910888 64.37716461 -105.0703125 57.56005859 C-103.12636171 56.09521832 -101.20131269 54.60922753 -99.28125 53.11328125 C-24.97398816 -4.38732224 -24.97398816 -4.38732224 0 0 Z " fill="#E5DB9E" transform="translate(880,110)"/>
<path d="M0 0 C0.97179199 0.11746582 1.94358398 0.23493164 2.94482422 0.35595703 C35.95436683 4.44568756 68.38287703 11.74859169 100 22 C101.1967334 22.38172363 102.3934668 22.76344727 103.62646484 23.15673828 C139.75022413 34.69344758 174.81145165 49.24728431 207.51318359 68.53759766 C209.81715897 69.89247813 212.13329007 71.2223641 214.45703125 72.54296875 C241.56546449 88.04247373 267.61440055 106.62595871 290.59375 127.8046875 C292.62681124 129.65952584 294.68845723 131.4654337 296.76953125 133.265625 C301.04563517 137.00135859 305.14412973 140.88966853 309.1875 144.875 C309.87263672 145.53113281 310.55777344 146.18726563 311.26367188 146.86328125 C316.9423227 152.47088063 322.02965262 158.50922417 322.5625 166.75 C322.32435357 170.87787147 321.05286182 173.12671829 318 176 C314.82338534 177.58830733 312.52944499 177.34241545 309 177 C306.00211856 175.63746223 303.37430655 173.82414162 300.671875 171.953125 C299.48915009 171.16346344 299.48915009 171.16346344 298.28253174 170.35784912 C295.76126714 168.67015384 293.25544449 166.96107064 290.75 165.25 C288.29587586 163.59431665 285.83868979 161.9432549 283.38117981 160.29260254 C281.7365506 159.18786331 280.09290915 158.08165224 278.45024109 156.97399902 C265.95948149 148.57214072 253.21991437 140.53624177 240.1875 133 C239.1874292 132.41951904 238.1873584 131.83903809 237.15698242 131.2409668 C227.73400889 125.79867493 218.21546828 120.54245479 208.62207031 115.40722656 C206.11420055 114.06128975 203.61543472 112.69962719 201.1171875 111.3359375 C152.46107531 85.03481093 99.44238263 65.98221338 46.07763672 51.82714844 C43.47889061 51.12870707 40.89593318 50.39843866 38.31640625 49.6328125 C15.49156044 42.88165024 -8.1841468 38.16237491 -31.66699219 34.38818359 C-33.77806803 34.03692673 -35.87659183 33.65007154 -37.9765625 33.23828125 C-45.07146511 31.87276537 -52.14647773 30.83889129 -59.328125 30.03125 C-60.08014694 29.94613159 -60.83216888 29.86101318 -61.60697937 29.77331543 C-65.42695805 29.34354415 -69.24780611 28.92822597 -73.0715332 28.53320312 C-89.23524522 26.80354079 -89.23524522 26.80354079 -95.9375 21.8125 C-98.56127549 18.23462433 -99.4349024 15.42730645 -99 11 C-96.65822759 6.12911339 -93.69992073 3.58034864 -89 1 C-61.49797217 -7.72976062 -28.15990381 -3.46338669 0 0 Z " fill="#E5DB9E" transform="translate(214,300)"/>
</svg>
